<svg width="60" height="24" viewBox="0 0 60 24" fill="none" xmlns="http://www.w3.org/2000/svg">
<circle opacity="0" cx="11" cy="12" r="11" fill="#D9D9D9"/>
<path d="M11 3.5C6.39746 3.5 2.66663 7.23083 2.66663 11.8333C2.66663 16.0108 5.74413 19.4608 9.75413 20.0633V14.0417H7.69246V11.8508H9.75413V10.3933C9.75413 7.98 10.93 6.92083 12.9358 6.92083C13.8966 6.92083 14.4041 6.99167 14.645 7.02417V8.93583H13.2766C12.425 8.93583 12.1275 9.74333 12.1275 10.6533V11.8508H14.6233L14.285 14.0417H12.1283V20.0808C16.1958 19.53 19.3333 16.0517 19.3333 11.8333C19.3333 7.23083 15.6025 3.5 11 3.5Z" fill="white"/>
<circle opacity="0" cx="48" cy="12" r="12" fill="#D9D9D9"/>
<path d="M54.3637 3.81818H41.6364C40.6319 3.81818 39.8182 4.63182 39.8182 5.63636V18.3636C39.8182 19.3682 40.6319 20.1818 41.6364 20.1818H54.3637C55.3682 20.1818 56.1819 19.3682 56.1819 18.3636V5.63636C56.1819 4.63182 55.3682 3.81818 54.3637 3.81818ZM45.2728 16.5455H42.9791V10.1818H45.2728V16.5455ZM44.0855 9.01545C43.3846 9.01545 42.9164 8.54818 42.9164 7.92454C42.9164 7.30091 43.3837 6.83363 44.1628 6.83363C44.8637 6.83363 45.3319 7.30091 45.3319 7.92454C45.3319 8.54818 44.8646 9.01545 44.0855 9.01545ZM53.4546 16.5455H51.2346V13.0673C51.2346 12.1055 50.6428 11.8836 50.421 11.8836C50.1991 11.8836 49.4591 12.0318 49.4591 13.0673C49.4591 13.2155 49.4591 16.5455 49.4591 16.5455H47.1655V10.1818H49.4591V11.07C49.7546 10.5518 50.3464 10.1818 51.4564 10.1818C52.5664 10.1818 53.4546 11.07 53.4546 13.0673V16.5455Z" fill="white"/>
</svg>
