<svg width="26" height="26" viewBox="0 0 26 26" fill="none" xmlns="http://www.w3.org/2000/svg">
<circle cx="13" cy="13" r="12" stroke="white" stroke-width="2"/>
<path d="M19.5 16.4993V19.4359C19.5 19.8719 19.2068 20.2337 18.8287 20.2644C18.5128 20.2901 18.2551 20.3029 18.0556 20.3029C11.6736 20.3029 6.5 14.3538 6.5 7.01516C6.5 6.78571 6.51116 6.48936 6.53348 6.12613C6.56021 5.69128 6.87479 5.3542 7.2539 5.3542H9.80785C9.99323 5.3542 10.1485 5.51566 10.1671 5.72775C10.1838 5.91816 10.1994 6.07102 10.2137 6.18636C10.3598 7.35958 10.6582 8.47628 11.0852 9.50912C11.1537 9.6749 11.109 9.87334 10.9791 9.98003L9.42034 11.2604C10.3693 13.8094 12.147 15.8536 14.3637 16.9448L15.4751 15.1555C15.5691 15.0043 15.7437 14.9523 15.8896 15.032C16.7878 15.5225 17.7588 15.8653 18.7789 16.0329C18.8786 16.0493 19.0107 16.067 19.1751 16.0861C19.3596 16.1075 19.5 16.2861 19.5 16.4993Z" fill="#FDFDFD"/>
</svg>
