<svg width="40" height="40" viewBox="0 0 40 40" fill="none" xmlns="http://www.w3.org/2000/svg">
<circle cx="20" cy="20" r="19" stroke="white" stroke-width="2"/>
<path d="M30 25.3839V29.9019C30 30.5726 29.549 31.1292 28.9672 31.1765C28.4812 31.2159 28.0848 31.2356 27.7778 31.2356C17.9593 31.2356 10 22.0832 10 10.793C10 10.44 10.0172 9.98409 10.0515 9.42527C10.0926 8.75626 10.5766 8.23769 11.1598 8.23769H15.089C15.3742 8.23769 15.6131 8.48609 15.6417 8.81238C15.6674 9.10531 15.6913 9.34049 15.7134 9.51793C15.9382 11.3229 16.3973 13.0409 17.0541 14.6299C17.1595 14.8849 17.0908 15.1902 16.8909 15.3543L14.4928 17.3242C15.9528 21.2457 18.6877 24.3905 22.098 26.0694L23.8079 23.3165C23.9524 23.084 24.2211 23.004 24.4456 23.1265C25.8273 23.8813 27.3212 24.4086 28.8907 24.6664C29.044 24.6917 29.2472 24.7189 29.5002 24.7483C29.784 24.7812 30 25.0559 30 25.3839Z" fill="#FDFDFD"/>
</svg>
